<svg width="31" height="30" viewBox="0 0 31 30" fill="none" xmlns="http://www.w3.org/2000/svg">
<path d="M25.5 23.75V13.125C25.5 12.9309 25.4548 12.7396 25.368 12.566C25.2812 12.3924 25.1552 12.2414 25 12.125L16.25 5.5625C16.0336 5.40022 15.7705 5.3125 15.5 5.3125C15.2295 5.3125 14.9664 5.40022 14.75 5.5625L6 12.125C5.84476 12.2414 5.71875 12.3924 5.63197 12.566C5.54518 12.7396 5.5 12.9309 5.5 13.125V23.75C5.5 24.0815 5.6317 24.3995 5.86612 24.6339C6.10054 24.8683 6.41848 25 6.75 25H11.75C12.0815 25 12.3995 24.8683 12.6339 24.6339C12.8683 24.3995 13 24.0815 13 23.75V20C13 19.6685 13.1317 19.3505 13.3661 19.1161C13.6005 18.8817 13.9185 18.75 14.25 18.75H16.75C17.0815 18.75 17.3995 18.8817 17.6339 19.1161C17.8683 19.3505 18 19.6685 18 20V23.75C18 24.0815 18.1317 24.3995 18.3661 24.6339C18.6005 24.8683 18.9185 25 19.25 25H24.25C24.5815 25 24.8995 24.8683 25.1339 24.6339C25.3683 24.3995 25.5 24.0815 25.5 23.75Z" stroke="black" stroke-width="2" stroke-linecap="round" stroke-linejoin="round"/>
</svg>
